<svg width="120" height="164" viewBox="0 0 120 164" fill="none" xmlns="http://www.w3.org/2000/svg">
  <g id="js">
    <path d="M0.254761 0H115.745V120H0.254761V0Z" fill="#F7DF1E"/>
    <path d="M30.6199 100.28L39.4581 94.7229C41.1631 97.8641 42.7142 100.522 46.4346 100.522C50.0009 100.522 52.2493 99.0723 52.2493 93.4342V55.0913H63.1024V93.5936C63.1024 105.274 56.5132 110.59 46.8999 110.59C38.2177 110.59 33.178 105.918 30.6198 100.28" fill="black"/>
    <path d="M68.9998 99.0724L77.8368 93.756C80.1631 97.7035 83.1866 100.603 88.5354 100.603C93.0324 100.603 95.9 98.2669 95.9 95.0448C95.9 91.1783 92.9543 89.8088 87.9926 87.5541L85.2801 86.345C77.4496 82.8819 72.2553 78.5322 72.2553 69.3492C72.2553 60.8913 78.4571 54.4469 88.1481 54.4469C95.0478 54.4469 100.009 56.9442 103.575 63.469L95.1248 69.1073C93.2641 65.6438 91.2491 64.2747 88.1483 64.2747C84.9697 64.2747 82.9539 66.369 82.9539 69.1073C82.9539 72.4905 84.9697 73.8602 89.6207 75.9547L92.3338 77.1629C101.559 81.2713 106.754 85.4595 106.754 94.8836C106.754 105.034 99.0788 110.591 88.7682 110.591C78.6901 110.591 72.1779 105.597 68.9999 99.0724" fill="black"/>
  </g>
  <g id="ts">
    <path d="M0 60V120H60H120V60V0H60H0V60Z" fill="#007ACC"/>
    <path d="M26.5374 60.3979L26.4993 65.3122H34.3088H42.1184L42.1184 87.5026V109.693H47.6422H53.166V87.5026L53.166 65.3122H60.9755H68.785V60.4931C68.785 57.8264 68.7279 55.5979 68.6517 55.5407C68.5946 55.4645 59.0898 55.4264 47.566 55.4455L26.5946 55.5026L26.5374 60.3979Z" fill="white"/>
    <path d="M96.8264 55.3636C99.874 56.1255 102.198 57.4779 104.331 59.6874C105.436 60.8684 107.074 63.0208 107.207 63.535C107.245 63.6874 102.026 67.1922 98.8644 69.1541C98.7502 69.2303 98.293 68.7351 97.7787 67.9731C96.2359 65.7255 94.6168 64.7541 92.1406 64.5827C88.5025 64.335 86.1597 66.2398 86.1787 69.4208C86.1787 70.3541 86.3121 70.9065 86.693 71.6684C87.493 73.3255 88.9787 74.316 93.6454 76.3351C102.236 80.0303 105.912 82.4684 108.198 85.935C110.75 89.8017 111.322 95.9731 109.588 100.564C107.683 105.554 102.96 108.945 96.3121 110.068C94.2549 110.43 89.3787 110.373 87.1692 109.973C82.3502 109.116 77.7787 106.735 74.9597 103.611C73.8549 102.392 71.7025 99.2112 71.8359 98.9827C71.893 98.9065 72.3883 98.6017 72.9406 98.2779C73.474 97.9731 75.493 96.8112 77.3978 95.7065L80.8454 93.7065L81.5692 94.7731C82.5787 96.316 84.7883 98.4303 86.1216 99.135C89.9502 101.154 95.2073 100.868 97.7978 98.5446C98.9025 97.535 99.3597 96.4874 99.3597 94.9446C99.3597 93.5541 99.1883 92.9446 98.4644 91.897C97.5311 90.5636 95.6263 89.4398 90.2168 87.097C84.0263 84.4303 81.3597 82.7731 78.9216 80.1446C77.5121 78.6208 76.1787 76.1827 75.6264 74.1446C75.1692 72.4493 75.0549 68.2017 75.4168 66.4874C76.693 60.5065 81.2073 56.335 87.7216 55.097C89.8359 54.697 94.7502 54.8493 96.8264 55.3636Z" fill="white"/>
  </g>
  <g id="mongo">
    <path d="M50.7409 47.7544C44.7206 19.869 32.1565 12.4436 28.9684 7.19463C27.2356 4.33931 25.4687 0 25.4687 0C25.296 2.47333 24.9897 4.03976 22.9795 5.91949C18.9537 9.68719 1.84559 24.3238 0.408565 56.0098C-0.931608 85.5523 21.087 103.772 24.0134 105.655C26.2488 106.809 28.9867 105.677 30.2955 104.619C40.9069 96.9681 55.4237 76.5686 50.7279 47.7544" fill="#10AA50"/>
    <path d="M26.3807 89.9189C25.8284 97.2345 25.4305 101.491 24.0249 105.663C24.0249 105.663 24.9515 112.624 25.5954 120H27.891C28.439 114.805 29.2754 109.648 30.396 104.556C27.4224 103.025 26.4932 96.3358 26.3807 89.9189Z" fill="#B8C4C2"/>
    <path d="M30.3943 104.561C27.3894 103.104 26.5204 96.2809 26.3869 89.9189C27.1272 79.43 27.3413 68.9075 27.0282 58.395C26.8711 52.8795 27.1067 7.30163 25.7351 0.62915C26.29 1.93452 27.6302 5.00144 28.9704 7.19171C32.1716 12.4434 44.7252 19.8689 50.7403 47.757C55.4283 76.497 40.9979 96.8607 30.3943 104.561Z" fill="#12924F"/>
  </g>
  <g id="postgresql">
    <path d="M116.889 71.8826C116.189 69.7638 114.357 68.2881 111.987 67.9339C110.869 67.7671 109.59 67.8382 108.075 68.1504C105.435 68.695 103.477 68.9024 102.048 68.9425C107.443 59.8342 111.829 49.4475 114.355 39.6702C118.438 23.8605 116.256 16.6581 113.706 13.4004C106.958 4.77748 97.1119 0.145172 85.234 0.00343171C78.8976 -0.0740469 73.3351 1.177 70.4333 2.07667C67.7316 1.59995 64.8266 1.33378 61.7785 1.28456C56.0647 1.19341 51.0163 2.43899 46.7026 4.99898C44.3144 4.19138 40.4815 3.0529 36.0552 2.32642C25.6448 0.617335 17.2543 1.94906 11.1171 6.28467C3.68552 11.5341 0.240461 20.6547 0.877608 33.3931C1.07996 37.4374 3.34234 49.7429 6.90453 61.413C8.95179 68.1208 11.1349 73.691 13.3931 77.9706C16.5957 84.039 20.0226 87.6126 23.8696 88.896C26.0258 89.6143 29.9435 90.1174 34.064 86.6856C34.5863 87.3182 35.2831 87.9467 36.2079 88.5305C37.3823 89.2711 38.8184 89.8763 40.2527 90.235C45.4214 91.5271 50.2629 91.2039 54.3934 89.3928C54.419 90.1274 54.4386 90.8293 54.455 91.4355C54.4823 92.4185 54.5097 93.3825 54.5457 94.284C54.7904 100.379 55.2051 105.119 56.4339 108.435C56.5013 108.617 56.592 108.895 56.6877 109.19C57.3007 111.067 58.3257 114.209 60.9335 116.669C63.6339 119.218 66.9003 120 69.8919 120C71.3923 120 72.8238 119.803 74.0794 119.534C78.5549 118.575 83.638 117.114 87.315 111.878C90.7915 106.928 92.4815 99.4736 92.7873 87.7274C92.8269 87.3952 92.8634 87.078 92.8985 86.7758L92.9714 86.1551L93.7904 86.2271L94.0014 86.2412C98.5599 86.449 104.134 85.4824 107.557 83.8922C110.262 82.6371 118.93 78.0608 116.889 71.8826Z" fill="black"/>
    <path d="M109.095 73.0839C95.5413 75.88 94.6093 71.291 94.6093 71.291C108.92 50.0559 114.903 23.1011 109.74 16.5041C95.6557 -1.49149 71.275 7.01931 70.868 7.23989L70.7372 7.26359C68.0592 6.70757 65.0626 6.37669 61.6941 6.32154C55.5614 6.22128 50.909 7.92945 47.3788 10.6066C47.3788 10.6066 3.88593 -7.31104 5.90903 33.141C6.33926 41.7466 18.2436 98.2563 32.4423 81.1878C37.632 74.9462 42.6466 69.669 42.6466 69.669C45.1369 71.3234 48.1185 72.1674 51.244 71.8643L51.4869 71.6583C51.4113 72.4331 51.4459 73.191 51.584 74.0884C47.9261 78.1752 49.0013 78.8926 41.6891 80.3979C34.2899 81.9229 38.6364 84.6374 41.4744 85.3474C44.9149 86.2075 52.8743 87.4261 58.2522 79.8975L58.038 80.7566C59.4709 81.9047 60.4772 88.2233 60.3086 93.9517C60.1399 99.6796 60.0274 103.612 61.1563 106.684C62.2861 109.756 63.4114 116.667 73.0242 114.608C81.056 112.887 85.2184 108.426 85.7977 100.985C86.2083 95.6958 87.1385 96.4779 87.1968 91.7485L87.9429 89.5099C88.8029 82.3394 88.0796 80.026 93.0278 81.1021L94.231 81.2078C97.8725 81.3732 102.64 80.6217 105.438 79.3214C111.462 76.5258 115.035 71.8575 109.095 73.0839H109.095Z" fill="#336791"/>
    <path d="M49.9253 36.9892C48.7039 36.8192 47.5978 36.9765 47.0381 37.4003C46.7236 37.6387 46.6261 37.9149 46.5997 38.1049C46.5295 38.6085 46.8822 39.1654 47.0992 39.4526C47.7126 40.2656 48.6086 40.8244 49.4955 40.9475C49.6241 40.9657 49.7521 40.9739 49.8793 40.9739C51.3582 40.9739 52.7032 39.8222 52.8216 38.9722C52.9698 37.9076 51.4243 37.1979 49.9253 36.9897" fill="white"/>
    <path d="M90.3868 37.0233C90.2701 36.1888 88.7853 35.9509 87.3761 36.1469C85.9687 36.3429 84.6042 36.9782 84.7181 37.8145C84.8092 38.4649 85.9837 39.5751 87.3738 39.5751C87.4914 39.5751 87.6099 39.5673 87.7293 39.5505C88.6572 39.422 89.3381 38.8327 89.6617 38.4931C90.1539 37.9754 90.4392 37.3984 90.3868 37.0233Z" fill="white"/>
    <path d="M113.606 72.7665C113.089 71.2037 111.426 70.701 108.662 71.2716C100.456 72.9652 97.5173 71.7921 96.5525 71.0815C102.931 61.3648 108.178 49.619 111.009 38.6604C112.349 33.4693 113.09 28.6483 113.151 24.7188C113.218 20.406 112.483 17.2366 110.968 15.3006C104.86 7.49576 95.8953 3.30918 85.0437 3.19433C77.5834 3.11047 71.2803 5.01963 70.0584 5.55651C67.4852 4.91663 64.68 4.52377 61.626 4.47364C56.0257 4.38294 51.1846 5.72378 47.1767 8.45695C45.4357 7.80886 40.9365 6.2643 35.4341 5.37786C25.9216 3.84652 18.3624 5.00687 12.9681 8.82839C6.53144 13.3887 3.55991 21.5403 4.13553 33.0564C4.32923 36.9308 6.53691 48.8497 10.0207 60.2642C14.6065 75.2877 19.5916 83.7926 24.8364 85.5422C25.4503 85.7469 26.1581 85.89 26.9388 85.89C28.8521 85.89 31.1979 85.0277 33.6385 82.0935C36.6153 78.5225 39.6946 75.0381 42.8726 71.6448C44.9344 72.7514 47.1995 73.3694 49.5161 73.4314C49.5207 73.492 49.5266 73.5526 49.5321 73.6128C49.1333 74.0883 48.7428 74.5707 48.3608 75.0598C46.7556 77.0975 46.4215 77.5218 41.2546 78.5856C39.7848 78.8891 35.8812 79.6935 35.8238 82.4299C35.7618 85.4196 40.4384 86.6752 40.9711 86.8083C42.8279 87.2732 44.6167 87.5024 46.3226 87.5024C50.4714 87.5024 54.1224 86.1388 57.0402 83.5004C56.9504 94.1588 57.3948 104.661 58.6745 107.861C59.7228 110.481 62.2832 116.883 70.3711 116.882C71.5579 116.882 72.8641 116.744 74.3011 116.436C82.7421 114.627 86.4078 110.896 87.8256 102.671C88.5845 98.2751 89.8866 87.7786 90.4991 82.1482C91.7916 82.5516 93.4556 82.7361 95.2545 82.7357C99.0062 82.7357 103.335 81.9386 106.05 80.6784C109.1 79.2619 114.604 75.7863 113.606 72.7665ZM93.5044 34.7199C93.4766 36.3821 93.2478 37.8911 93.0053 39.4662C92.7442 41.1602 92.4743 42.9117 92.4064 45.0378C92.3394 47.1069 92.5979 49.2581 92.8476 51.3386C93.3526 55.5407 93.8708 59.8667 91.865 64.1353C91.5318 63.545 91.235 62.9348 90.9763 62.3082C90.727 61.7039 90.1855 60.7331 89.4358 59.3896C86.5194 54.1593 79.6899 41.9113 83.186 36.9135C84.2274 35.4259 86.8704 33.8964 93.5044 34.7199ZM85.463 6.56009C95.1861 6.77475 102.877 10.4121 108.323 17.3706C112.499 22.708 107.9 46.9939 94.5863 67.9455C94.4524 67.7752 94.3178 67.6055 94.1825 67.4364L94.0139 67.2258C97.4544 61.5439 96.7817 55.9222 96.1828 50.938C95.9367 48.8926 95.7043 46.9606 95.7635 45.1458C95.8246 43.2225 96.0789 41.5727 96.325 39.9775C96.6272 38.0118 96.9348 35.9778 96.8501 33.5801C96.9134 33.3285 96.9389 33.0313 96.9057 32.6786C96.6892 30.3793 94.064 23.4978 88.7134 17.2695C85.7866 13.8627 81.5184 10.0503 75.6907 7.4789C78.1973 6.95933 81.6251 6.47486 85.463 6.56009ZM31.0557 79.946C28.3667 83.1791 26.51 82.5593 25.8993 82.356C21.9205 81.0289 17.3037 72.6193 13.2333 59.2838C9.71126 47.745 7.65306 36.1419 7.4899 32.8882C6.97581 22.5982 9.47016 15.4268 14.9041 11.573C23.7476 5.30175 38.2872 9.05536 44.1295 10.9591C44.0457 11.042 43.9582 11.1195 43.8752 11.2038C34.2879 20.8859 34.5153 37.428 34.539 38.4393C34.5381 38.8295 34.5709 39.3818 34.6156 40.1416C34.7806 42.924 35.0878 48.1023 34.2674 53.9665C33.5054 59.416 35.1853 64.7497 38.8756 68.6004C39.2543 68.9948 39.6524 69.3702 40.0683 69.7252C38.4257 71.4844 34.8558 75.3748 31.0557 79.946ZM41.3006 66.2765C38.3264 63.1728 36.9755 58.8559 37.594 54.4314C38.4599 48.2367 38.1404 42.8415 37.9686 39.9429C37.9445 39.5373 37.923 39.1818 37.9107 38.9015C39.3113 37.6595 45.8017 34.1821 50.4304 35.2427C52.5423 35.7262 53.8294 37.1646 54.3645 39.6384C57.1336 52.4466 54.7309 57.7848 52.8003 62.0749C52.4024 62.9586 52.0264 63.794 51.7056 64.6581L51.4567 65.3262C50.8269 67.0153 50.2408 68.5858 49.8775 70.077C46.7155 70.0679 43.6396 68.7171 41.3006 66.276V66.2765ZM41.786 83.5497C40.8627 83.319 40.0323 82.9184 39.5451 82.5862C39.9521 82.3948 40.6763 82.1341 41.9323 81.8752C48.0107 80.6242 48.9496 79.7409 50.9996 77.1381C51.4695 76.541 52.0023 75.8647 52.7401 75.0407L52.741 75.0398C53.8399 73.8092 54.3426 74.018 55.2541 74.3962C55.9929 74.7016 56.7125 75.6277 57.0042 76.6468C57.1423 77.1281 57.2972 78.0414 56.79 78.7524C52.5077 84.7483 46.2675 84.6713 41.786 83.5497ZM73.5974 113.152C66.1613 114.745 63.5283 110.951 61.7933 106.614C60.6735 103.813 60.1229 91.1863 60.5135 77.2415C60.5185 77.056 60.4921 76.8769 60.441 76.7083C60.3954 76.3753 60.3259 76.046 60.2332 75.723C59.6526 73.6939 58.2375 71.9967 56.5398 71.293C55.8653 71.0136 54.6274 70.5009 53.1398 70.8815C53.457 69.5743 54.0071 68.0981 54.6037 66.4998L54.8539 65.8276C55.1356 65.0696 55.4893 64.2844 55.863 63.4531C57.8833 58.9648 60.6502 52.8171 57.6473 38.9288C56.5225 33.7268 52.7661 31.1864 47.0719 31.7766C43.6583 32.1299 40.535 33.5071 38.9772 34.297C38.6422 34.4665 38.3359 34.6306 38.0497 34.7901C38.4845 29.5489 40.1271 19.7538 46.2716 13.5564C50.1405 9.65513 55.2928 7.72819 61.5704 7.83211C73.9397 8.03446 81.8716 14.3822 86.3481 19.6722C90.2056 24.2302 92.2943 28.822 93.1279 31.2986C86.859 30.6609 82.5954 31.8983 80.4342 34.9884C75.7321 41.7099 83.0065 54.7554 86.5026 61.0253C87.1438 62.1742 87.6971 63.1673 87.8712 63.5894C89.0097 66.3485 90.4836 68.1907 91.5596 69.5351C91.8896 69.9472 92.2096 70.3468 92.4529 70.696C90.5543 71.2433 87.1438 72.508 87.4546 78.8298C87.204 82.0019 85.4215 96.8532 84.5159 102.1C83.3205 109.032 80.7696 111.614 73.5974 113.152V113.152ZM104.636 77.6321C102.695 78.5331 99.4456 79.209 96.3592 79.3544C92.9502 79.5139 91.2146 78.9725 90.8063 78.6393C90.6149 74.6998 92.081 74.2882 93.6329 73.8525C93.8767 73.7842 94.1146 73.7172 94.3443 73.637C94.487 73.7532 94.6433 73.8685 94.8147 73.9815C97.5547 75.7899 102.442 75.985 109.341 74.5608L109.417 74.5457C108.486 75.4158 106.894 76.5834 104.636 77.6321Z" fill="white"/>
  </g>
  <g id="express">
    <path d="M37.2184 73.389V47.1348H38.6425V51.2646C38.8106 51.0815 38.9659 50.887 39.1073 50.6824C40.2967 48.2148 42.8053 46.6574 45.5441 46.6882C48.791 46.5914 51.4295 47.7933 52.98 50.6824C53.9667 52.4773 54.5097 54.4822 54.5636 56.5297C54.6175 58.5771 54.1808 60.6078 53.2899 62.4521C51.8453 65.6899 48.2772 67.2996 44.4572 66.7084C43.2684 66.6073 42.1239 66.2101 41.1281 65.553C40.1322 64.8959 39.3169 63.9998 38.7564 62.9465V73.3878L37.2184 73.389ZM38.6425 56.422L38.9615 59.5048C39.5243 63.0138 41.5988 65.0872 44.856 65.4768C46.3856 65.7283 47.955 65.4416 49.2968 64.6654C50.6386 63.8893 51.6698 62.6718 52.2144 61.2206C53.4813 58.2015 53.3879 54.7838 51.9638 51.8354C51.3825 50.5344 50.3935 49.4581 49.1464 48.7689C47.8992 48.0797 46.4616 47.8153 45.0508 48.0154C43.7266 48.1118 42.4652 48.6181 41.4419 49.4642C40.4187 50.3102 39.6843 51.454 39.3408 52.7365C39.0376 53.9502 38.8044 55.1804 38.6425 56.4209V56.422ZM83.6409 59.9902C83.4249 61.8387 82.5449 63.5459 81.1646 64.7942C79.7842 66.0425 77.9974 66.7471 76.1366 66.7767C70.1646 67.0775 67.362 63.1117 66.9166 58.5353C66.6068 56.0501 67.0102 53.5281 68.0797 51.2635C68.8241 49.71 70.0438 48.4338 71.5619 47.6198C73.0801 46.8058 74.8181 46.4963 76.5239 46.736C78.1456 46.8739 79.6829 47.5183 80.9182 48.5779C82.1535 49.6376 83.0243 51.059 83.4073 52.6408C83.7107 54.0818 83.934 55.5385 84.0761 57.0042H68.3919C68.1014 61.1534 70.3309 64.4891 73.4912 65.2934C77.4273 66.2618 80.7916 64.5563 82.0129 60.8139C82.284 59.8535 82.7785 59.7179 83.6511 59.9902H83.6409ZM68.3805 55.6758H82.4093C82.3216 51.2555 79.5692 48.0428 75.8358 48.0063C71.6206 47.938 68.5639 51.0219 68.3805 55.6758ZM86.5403 60.087H87.9154C87.9659 61.1001 88.2949 62.0796 88.8661 62.9177C89.4373 63.7559 90.2287 64.4203 91.1531 64.8377C92.3139 65.3601 93.5775 65.614 94.8499 65.5804C96.1224 65.5469 97.3708 65.2268 98.5025 64.644C99.1193 64.3663 99.6361 63.9059 99.9828 63.325C100.33 62.7441 100.49 62.0708 100.441 61.396C100.477 60.7452 100.299 60.1006 99.9354 59.5599C99.5715 59.0192 99.0413 58.6119 98.425 58.3998C96.9121 57.837 95.3034 57.5271 93.762 57.0327C92.1581 56.576 90.5897 56.0026 89.0694 55.3169C86.5858 54.1048 86.432 49.3837 89.2437 47.889C90.6834 47.0766 92.3036 46.6376 93.9565 46.6122C95.6094 46.5867 97.2424 46.9755 98.7064 47.7432C100.522 48.7457 101.526 50.7702 101.228 52.8242H100.048C100.048 52.7673 99.9414 52.7171 99.9414 52.659C99.7955 48.8995 96.6352 47.7238 93.2425 48.0542C92.2172 48.1681 91.2454 48.478 90.334 48.936C89.7861 49.1862 89.3296 49.6005 89.0275 50.1215C88.7254 50.6426 88.5928 51.2447 88.6479 51.8445C88.649 52.4447 88.8361 53.0298 89.1833 53.5194C89.5305 54.0091 90.0209 54.3791 90.5869 54.5787C92.0679 55.1221 93.6401 55.4707 95.1724 55.8968L98.875 56.8652C99.7166 57.1414 100.454 57.6666 100.991 58.3712C101.528 59.0759 101.838 59.9269 101.88 60.8116C102.177 62.7996 101.163 64.7534 99.3695 65.6591C96.1317 67.491 90.7988 67.0069 88.4235 64.6907C87.2079 63.4683 86.53 61.8084 86.5437 60.0859L86.5403 60.087ZM119.328 52.8254H118.038C118.038 52.6511 117.97 52.4836 117.951 52.3503C117.93 51.3836 117.578 50.4534 116.953 49.7156C116.328 48.9778 115.468 48.4773 114.518 48.298C112.726 47.7839 110.814 47.876 109.079 48.56C108.393 48.7563 107.79 49.1693 107.358 49.7373C106.926 50.3053 106.69 50.9978 106.685 51.7112C106.66 52.4117 106.878 53.0991 107.302 53.6573C107.726 54.2155 108.33 54.6102 109.011 54.7746L114.906 56.2876C115.543 56.4405 116.171 56.6314 116.785 56.8595C118.665 57.543 119.941 59.2884 119.998 61.2832C120.026 62.2597 119.758 63.2218 119.23 64.0432C118.701 64.8647 117.936 65.507 117.036 65.8858C115.668 66.5073 114.185 66.8361 112.682 66.8512C111.18 66.8663 109.691 66.5674 108.31 65.9735C107.175 65.4841 106.217 64.6586 105.565 63.6081C104.914 62.5577 104.599 61.3329 104.665 60.0984H105.925C106.399 62.3826 107.967 64.2852 110.119 65.1852C112.272 66.0852 114.729 65.8642 116.686 64.5973C117.273 64.2919 117.761 63.8247 118.091 63.2509C118.421 62.677 118.579 62.0207 118.548 61.3596C118.577 60.7083 118.393 60.0653 118.024 59.5281C117.654 58.9909 117.12 58.5887 116.502 58.3827C114.989 57.8199 113.38 57.5203 111.839 57.0156C110.226 56.5659 108.648 55.999 107.118 55.3192C104.693 54.1264 104.5 49.4441 107.263 47.9505C108.721 47.104 110.373 46.6493 112.058 46.6305C113.743 46.6117 115.405 47.0296 116.881 47.8434C117.725 48.3472 118.405 49.0857 118.837 49.9688C119.269 50.8519 119.435 51.8416 119.314 52.8174L119.328 52.8254ZM34.875 66.3028C34.3673 66.4948 33.807 66.4942 33.2997 66.3014C32.7924 66.1085 32.3732 65.7366 32.1214 65.2558L27.1086 58.3234L26.3818 57.3551L20.5647 65.2661C20.3276 65.7261 19.9312 66.0842 19.4494 66.2733C18.9676 66.4624 18.4335 66.4696 17.9467 66.2937L25.4408 56.2397L18.4685 47.1553C19.5029 46.7816 20.6559 47.1872 21.2312 48.1237L26.4262 55.1415L31.652 48.151C31.8908 47.6988 32.2876 47.3502 32.7667 47.1714C33.2458 46.9927 33.774 46.9963 34.2506 47.1815L31.5449 50.7713L27.8799 55.5414C27.7782 55.6322 27.6968 55.7435 27.6411 55.868C27.5854 55.9924 27.5565 56.1273 27.5565 56.2637C27.5565 56.4 27.5854 56.5349 27.6411 56.6593C27.6968 56.7838 27.7782 56.8951 27.8799 56.9859L34.8601 66.3028H34.875ZM66.6944 47.0585V48.4256C65.7138 48.3612 64.7306 48.5033 63.8083 48.8424C62.886 49.1816 62.0451 49.7104 61.3398 50.3946C60.6345 51.0789 60.0805 51.9034 59.7135 52.8151C59.3466 53.7267 59.1749 54.7051 59.2095 55.6872C59.2095 58.8802 59.2095 62.0731 59.2095 65.2661V66.3518H57.823V47.1439H59.1901V51.08C60.8671 48.2091 63.4555 47.1439 66.7035 47.0664L66.6944 47.0585ZM0.00227889 56.1144L0.612921 53.0988C2.28991 47.1359 9.12545 44.6546 13.8283 48.3481C16.5819 50.5104 17.2689 53.5739 17.1344 57.0258H1.62116C1.37053 63.1915 5.81933 66.9146 11.5099 65.0143C13.3851 64.3307 14.7967 62.7722 15.2615 60.8355C15.5623 59.8671 16.059 59.7008 16.9681 59.9811C16.8165 61.1615 16.3992 62.2921 15.7476 63.2881C15.096 64.284 14.2271 65.1192 13.2063 65.7309C11.5197 66.6533 9.58459 67.0187 7.67775 66.775C5.77091 66.5313 3.98995 65.6909 2.58953 64.374C1.2042 62.8167 0.367981 60.848 0.205067 58.7689C0.205067 58.4271 0.0911409 58.1081 0.0113928 57.8005C0.00379779 57.2256 0 56.6635 0 56.1144H0.00227889ZM1.64053 55.6974H15.6693C15.5816 51.2281 12.7608 48.0576 8.99899 48.028C4.81108 47.971 1.81484 51.0721 1.63028 55.6781L1.64053 55.6974Z" fill="#BDEBEA"/>

  </g>
  <g id="jest">
    <path d="M102.525 59.083C102.525 52.9145 97.5238 47.9135 91.3553 47.9135C90.9581 47.9135 90.567 47.9348 90.1809 47.9756L105.522 2.72803H40.327L55.647 47.936C55.421 47.9218 55.1945 47.9144 54.968 47.9139C48.7995 47.9139 43.7986 52.914 43.7986 59.0834C43.7986 64.0695 47.0665 68.2911 51.5764 69.7273C49.1945 73.8533 46.197 77.5697 42.7939 80.7807C38.1662 85.146 32.8702 88.4565 27.1422 90.496C20.3223 86.9926 17.102 79.2012 20.0077 72.3698C20.3359 71.5981 20.6709 70.8162 20.9911 70.0377C25.9317 68.8846 29.6137 64.4555 29.6137 59.1633C29.6137 52.9944 24.6128 47.9939 18.4439 47.9939C12.2749 47.9939 7.2744 52.9944 7.2744 59.1633C7.2744 62.9461 9.15624 66.2876 12.0334 68.3081C9.26891 74.6024 5.20505 81.1901 3.93887 88.8251C2.4214 97.9749 3.93377 107.688 11.8476 113.173C30.2783 125.947 50.2847 105.254 71.3786 100.052C79.0234 98.1671 87.4151 98.4707 94.1504 94.5701C99.2083 91.6406 102.543 86.7855 103.489 81.3351C104.424 75.9507 103.061 70.5896 99.9269 66.2425C101.608 64.2361 102.528 61.7009 102.525 59.083Z" fill="#99425B"/>
    <path d="M100.802 80.8682C99.9803 85.6005 97.0576 89.7336 92.7837 92.2094C88.7993 94.5169 84.025 95.2057 78.9696 95.9344C76.2617 96.3247 73.4614 96.7291 70.7258 97.4034C63.4927 99.187 56.4866 102.667 49.7118 106.032C36.1528 112.767 24.4434 118.583 13.4023 110.931C5.31458 105.325 5.68789 94.9544 6.63008 89.2715C7.5034 84.006 9.86442 79.1569 12.1472 74.4676C12.5361 73.6706 12.9219 72.8721 13.3045 72.0721C14.4553 72.5321 15.6627 72.835 16.8943 72.9726C14.5703 80.6424 18.2251 88.9819 25.8958 92.9225L26.946 93.462L28.0574 93.0662C34.1217 90.9063 39.7099 87.4411 44.6662 82.7645C47.8699 79.7419 50.6246 76.3979 52.8887 72.8247C53.577 72.9285 54.2722 72.9807 54.9683 72.9807C62.0088 72.9807 67.8389 67.7174 68.7411 60.9197C71.623 60.8142 74.6838 60.8134 77.5823 60.9188C78.4837 67.7174 84.3146 72.9811 91.3551 72.9811C94.299 72.9811 97.0295 72.0585 99.2792 70.4913C100.841 73.6882 101.424 77.2852 100.802 80.8682ZM18.4445 50.7217C23.0994 50.7217 26.886 54.5088 26.886 59.1637C26.886 60.8355 26.3954 62.3946 25.5531 63.7076C24.15 65.896 21.7648 67.396 19.0245 67.5831C18.8327 67.5958 18.6393 67.6052 18.4445 67.6052C17.4071 67.6052 16.4135 67.416 15.4946 67.0724C13.6442 66.3766 12.0946 65.0568 11.1132 63.3406C10.3844 62.0692 10.0015 60.6291 10.0026 59.1637C10.0026 54.5088 13.7897 50.7217 18.4445 50.7217ZM46.5272 59.0833C46.5272 54.8541 49.6535 51.3425 53.7157 50.7353C54.1247 50.6737 54.5431 50.6418 54.9687 50.6418C57.675 50.6418 60.0845 51.9237 61.6296 53.9102C62.0166 54.4055 62.3471 54.9424 62.6151 55.511C63.1398 56.6287 63.4113 57.8485 63.4102 59.0833C63.4102 59.7581 63.3286 60.4141 63.1785 61.0434C62.3558 64.4873 59.419 67.12 55.8203 67.4823C55.5406 67.5104 55.2565 67.5248 54.9687 67.5248C53.345 67.5262 51.7558 67.0563 50.3938 66.1723C48.0697 64.6668 46.5272 62.0523 46.5272 59.0833ZM81.7597 49.0448C79.9227 50.7983 78.6006 53.021 77.9369 55.4723C74.7551 55.355 71.57 55.355 68.3882 55.4723C67.6739 52.8226 66.1934 50.4849 64.2015 48.7094L72.9368 31.0466L81.7597 49.0453V49.0448ZM44.1322 5.45675H101.717L88.1161 45.5703C87.5309 45.7104 86.9556 45.8887 86.3937 46.1039L72.958 18.6956L59.4841 45.9402C58.8967 45.7386 58.2964 45.5768 57.6873 45.4559L44.1322 5.45675ZM99.7966 59.0837C99.7966 59.9298 99.6703 60.747 99.4378 61.5187C98.886 63.3355 97.7401 64.9144 96.1839 66.0023C94.7694 66.9949 93.0831 67.5268 91.3551 67.5252C87.4575 67.5252 84.1696 64.8691 83.2027 61.2721C83.0107 60.5585 82.9135 59.8227 82.9136 59.0837C82.9136 57.9298 83.1466 56.8294 83.5675 55.8269C83.7847 55.3139 84.0522 54.8237 84.366 54.3634C85.8852 52.121 88.4486 50.6422 91.3551 50.6422C91.6217 50.6422 91.8844 50.6558 92.1451 50.6805C96.4309 51.0797 99.797 54.695 99.797 59.0837H99.7966ZM105.253 59.0837C105.253 52.2987 100.364 46.6375 93.9253 45.4283L109.328 0H36.5223L51.9486 45.5201C45.7334 46.9032 41.0713 52.4573 41.0713 59.0833C41.0713 64.0588 43.7006 68.4287 47.6412 70.8846C45.7457 73.7086 43.4982 76.366 40.9225 78.7963C36.8374 82.6497 32.2867 85.5724 27.3805 87.4955C22.4387 84.3913 20.3498 78.537 22.519 73.4374L22.6891 73.0377L23.008 72.2877C28.4358 70.3943 32.3419 65.2284 32.3419 59.1637C32.3419 51.5002 26.1075 45.2658 18.4445 45.2658C10.7811 45.2658 4.54671 51.5002 4.54671 59.1637C4.54671 63.0315 6.13688 66.5342 8.6956 69.0563C8.21838 70.0674 7.73395 71.0751 7.24234 72.0793C4.90258 76.8843 2.25116 82.3304 1.24817 88.3786C-0.743372 100.39 2.46928 109.992 10.2947 115.415C15.0431 118.706 19.8655 120 24.7181 120C33.8552 120 43.0985 115.409 52.1391 110.919C58.6499 107.685 65.3826 104.341 72.0328 102.701C74.5074 102.091 77.0534 101.723 79.749 101.335C85.0948 100.563 90.6221 99.7662 95.5185 96.9306C101.194 93.6431 105.079 88.1286 106.178 81.8019C107.121 76.3702 105.986 70.9301 103.218 66.316C104.552 64.1395 105.256 61.636 105.253 59.0833L105.253 59.0837Z" fill="white"/>
  </g>
  <g id="nestjs">
    <path fill-rule="evenodd" clip-rule="evenodd" d="M70.6686 0C69.8448 0.00936615 69.0282 0.154155 68.2514 0.428571C75.1557 4.96286 67.0514 11.5457 70.8228 17.1429C70.559 15.2693 70.8562 13.3595 71.677 11.6547C72.4977 9.94995 73.8052 8.52656 75.4343 7.56429C76.6557 6.54857 77.4357 6.18429 77.1743 4.50429C76.7628 1.75286 73.0943 0 70.6686 0ZM80.5257 1.77429C79.5743 6.58714 78.3828 6.76286 74.8557 9.86143C73.4786 10.9449 72.5065 12.4606 72.096 14.164C71.6855 15.8675 71.8605 17.6596 72.5928 19.2514C58.0214 13.5943 39.3443 10.1743 25.6514 19.9629C20.7271 23.4814 17.7186 28.5343 11.6457 30.5957C7.71998 31.9371 3.86284 31.5429 1.41141 35.4343C0.511723 36.558 0.041734 37.9654 0.085715 39.4042C0.129696 40.843 0.68477 42.2191 1.65141 43.2857C2.37998 44.0357 3.79427 44.5157 4.37712 45.2786C4.7157 45.7071 4.70712 46.1357 5.02855 46.7057C5.59525 48.0348 6.41637 49.2403 7.4457 50.2543C8.07141 50.7729 10.24 51.2786 10.6086 51.8314C11.0671 52.5214 9.86712 55.26 10.8743 55.6886C11.5557 56.0014 13.54 52.5 13.7328 52.1914C13.3386 54.9471 12.82 59.8371 15.9186 55.7657C17.3886 53.8329 17.4786 53.1943 19.9514 52.7657C24.8319 51.9298 29.8326 52.1146 34.6381 53.3084C39.4436 54.5023 43.9494 56.6792 47.8713 59.7019C51.7932 62.7245 55.046 66.5273 57.4244 70.8702C59.8028 75.2131 61.2552 80.0019 61.69 84.9343C61.2271 82.7914 58.4286 79.3629 55.8228 80.1771C54.7128 80.52 54.3014 82.4357 53.5728 83.5457C52.653 84.9541 51.5178 86.2094 50.2085 87.2657C50.4321 85.1881 50.328 83.0882 49.9 81.0429C49.12 84.2486 47.5557 89.5671 43.6171 88.7057C42.3051 88.5054 41.0757 87.9403 40.0694 87.0749C39.0631 86.2095 38.3202 85.0787 37.9257 83.8114C37.4157 80.5543 40.8571 76.7357 35.3243 76.4657C24.2243 75.9214 26.7914 92.2457 33.3443 96.5014C31.8383 96.668 30.3692 97.0776 28.9943 97.7143C33.1535 100.131 37.8401 101.496 42.6468 101.69C47.4534 101.883 52.2346 100.901 56.575 98.8262C60.9153 96.7519 64.6835 93.6491 67.5519 89.7873C70.4203 85.9255 72.3023 81.4217 73.0343 76.6671C74.5607 83.6224 73.5801 90.8933 70.2657 97.1957C68.8785 99.8304 67.1013 102.24 64.9943 104.344C63.7085 105.63 61.1628 107.044 60.3271 108.377C65.5284 107.689 70.6112 106.294 75.4343 104.229C70.4421 111.031 63.8068 116.457 56.1486 120C64.3718 119.418 72.3209 116.798 79.279 112.377C86.2371 107.956 91.9854 101.873 96.0057 94.6757C94.7245 101.874 91.879 108.703 87.67 114.681C93.3311 110.891 98.1475 105.972 101.817 100.232C105.486 94.4917 107.929 88.0549 108.991 81.3257C110.045 86.2519 110.347 91.3092 109.887 96.3257C114.539 89.8646 117.682 82.4422 119.085 74.6051C120.487 66.7682 120.114 58.7163 117.991 51.0429C116.367 45.0782 113.932 39.3648 110.753 34.0629C109.523 31.9968 108.176 30.0021 106.72 28.0886C106.15 27.3471 103.103 24.6343 103.103 23.8029C103.077 23.8857 103.056 23.8857 103.039 23.8029C103.039 37.8 88.0386 46.5643 75.4771 42.93C80.3398 42.5484 84.9267 40.5192 88.48 37.1778C92.0333 33.8365 94.3404 29.3829 95.02 24.5529C95.5933 19.6687 94.4651 14.7362 91.8256 10.5868C89.1861 6.43752 85.1968 3.32511 80.53 1.77429H80.5257Z" fill="#e0234e"/>
  </g>
  <g id="docker">
    <path d="M117.523 49.7463C114.821 47.8713 108.628 47.1681 103.787 48.1056C103.224 43.4181 100.635 39.3171 96.1308 35.6842L93.5414 33.8092L91.7395 36.5046C89.4881 40.0202 88.3622 44.9421 88.6997 49.6296C88.8122 51.2697 89.3752 54.1994 91.0641 56.7775C89.4881 57.715 86.2228 58.8869 81.9445 58.8869H0.541401L0.316401 59.8244C-0.472037 64.5114 -0.472037 79.1594 8.76046 90.4089C15.7411 98.9632 26.0995 103.299 39.7228 103.299C69.2212 103.299 91.0641 89.1194 101.31 63.4567C105.363 63.5739 114.033 63.4567 118.424 54.6677C118.537 54.4333 118.762 53.9646 119.55 52.2072L120 51.2697L117.523 49.7463ZM65.6184 16.7008H53.2341V28.4191H65.6184V16.7008ZM65.6184 30.7628H53.2341V42.4811H65.6184V30.7624V30.7628ZM50.9817 30.7628H38.5973V42.4811H50.9817V30.7624V30.7628ZM36.345 30.7628H23.9602V42.4811H36.345V30.7624V30.7628ZM21.7083 44.8249H9.32343V56.5432H21.7078V44.8244L21.7083 44.8249ZM36.345 44.8249H23.9602V56.5432H36.345V44.8244V44.8249ZM50.9817 44.8249H38.5973V56.5432H50.9817V44.8244V44.8249ZM65.6189 44.8249H53.2336V56.5432H65.6189V44.8244V44.8249ZM80.2556 44.8249H67.8703V56.5432H80.2556V44.8244V44.8249Z" fill="#2396ED"/>
  </g>
  <g id="react">
    <path d="M0 56.7974C0 66.273 8.84919 75.1189 22.8007 80.1049C20.0147 94.7701 22.3014 106.59 29.9391 111.196C37.79 115.93 49.4858 112.653 60.5867 102.507C71.4076 112.243 82.3439 116.075 89.9746 111.456C97.8178 106.709 100.203 94.087 97.3404 78.964C111.872 73.9405 120 66.3977 120 56.7974C120 47.5414 111.134 39.5338 97.3711 34.5796C100.453 18.8316 97.8416 7.29837 89.8877 2.50237C82.2193 -2.12128 71.156 1.9087 60.176 11.9001C48.7532 1.29502 37.799 -1.94286 29.8528 2.86712C22.1918 7.50392 20.0057 19.5388 22.8007 34.4756C9.32028 39.39 0 47.5784 0 56.7974Z" fill="white"/>
    <path d="M94.4565 39.4992C93.351 39.1013 92.2054 38.7248 91.0259 38.3688C91.2198 37.5415 91.3977 36.7249 91.5559 35.9222C94.1528 22.7415 92.4549 12.1231 86.6569 8.62701C81.0973 5.27476 72.005 8.77001 62.8223 17.1259C61.9393 17.9294 61.0538 18.7801 60.1687 19.6717C59.5789 19.0818 58.9901 18.5118 58.4028 17.9665C48.779 9.03183 39.1327 5.26663 33.3404 8.77279C27.7861 12.1348 26.1413 22.1171 28.4789 34.6085C28.7046 35.8151 28.9685 37.0472 29.2669 38.3C27.9016 38.7052 26.5836 39.1372 25.3226 39.5967C14.0397 43.7099 6.83398 50.1561 6.83398 56.8425C6.83398 63.7483 14.5693 70.675 26.3213 74.875C27.2487 75.2064 28.211 75.5198 29.2028 75.8173C28.8808 77.1722 28.6009 78.4999 28.3658 79.7949C26.1369 92.0696 27.8776 101.816 33.417 105.157C39.1388 108.607 48.7415 105.061 58.0921 96.5143C58.8311 95.8387 59.5729 95.1223 60.3159 94.3714C61.279 95.3411 62.2405 96.2588 63.197 97.1197C72.2541 105.269 81.1995 108.56 86.7339 105.21C92.4499 101.75 94.3076 91.2798 91.8958 78.5412C91.7116 77.5683 91.4973 76.5744 91.2566 75.5628C91.9309 75.3544 92.593 75.1392 93.2385 74.9154C105.456 70.6829 113.405 63.8406 113.405 56.8425C113.405 50.1319 105.967 43.6422 94.4565 39.4992Z" fill="#53C1DE"/>
    <path d="M91.8052 70.3972C91.2225 70.599 90.6246 70.7939 90.0153 70.9829C88.6665 66.5184 86.8462 61.771 84.6187 56.8661C86.7444 52.078 88.4943 47.3913 89.8053 42.9557C90.8955 43.2855 91.9536 43.6334 92.9732 44.0006C102.835 47.5504 108.851 52.7988 108.851 56.8429C108.851 61.1505 102.354 66.7425 91.8052 70.3972ZM87.4282 79.466C88.4947 85.0988 88.647 90.1916 87.9406 94.1728C87.3059 97.7501 86.0294 100.135 84.4512 101.09C81.0926 103.123 73.9104 100.481 66.1646 93.5115C65.2766 92.7125 64.3822 91.8595 63.485 90.9566C66.4878 87.5226 69.489 83.5305 72.4181 79.0969C77.57 78.6189 82.4374 77.8374 86.8514 76.7705C87.0688 77.6874 87.2619 78.5867 87.4282 79.466ZM43.1649 100.739C39.8836 101.951 37.2702 101.986 35.6904 101.033C32.3288 99.0059 30.9313 91.1803 32.8376 80.6831C33.0559 79.4809 33.3158 78.246 33.6153 76.9837C37.9809 77.9931 42.8126 78.7194 47.9769 79.1572C50.9257 83.4956 54.0135 87.4834 57.1253 90.975C56.4454 91.6613 55.7682 92.3147 55.0948 92.9303C50.96 96.7094 46.8165 99.3907 43.1649 100.739ZM27.7923 70.3709C22.5958 68.5137 18.3043 66.1001 15.3627 63.4662C12.7195 61.0994 11.385 58.7496 11.385 56.8429C11.385 52.7853 17.1705 47.6099 26.8197 44.0922C27.9905 43.6654 29.2161 43.2631 30.488 42.8853C31.8216 47.421 33.5709 52.1633 35.682 56.9587C33.5436 61.8253 31.7694 66.6431 30.4228 71.2321C29.516 70.9595 28.6375 70.6727 27.7923 70.3709ZM32.9453 33.6947C30.9425 22.9923 32.2726 14.9189 35.6198 12.893C39.1851 10.7348 47.069 13.8119 55.3784 21.5266C55.9095 22.0197 56.4428 22.5358 56.9775 23.0697C53.8811 26.5461 50.8215 30.5039 47.8989 34.8167C42.8868 35.3025 38.0891 36.0828 33.6779 37.1277C33.4006 35.9612 33.1549 34.8152 32.9453 33.6947ZM78.9151 45.5635C77.8606 43.659 76.778 41.7995 75.6744 39.9908C79.0746 40.4402 82.3325 41.0369 85.3919 41.767C84.4734 44.8449 83.3285 48.0631 81.981 51.3622C81.0143 49.4432 79.9918 47.5083 78.9151 45.5635ZM60.1687 26.4717C62.2687 28.8505 64.3716 31.5063 66.44 34.3879C64.3557 34.285 62.2455 34.2314 60.1179 34.2314C58.0104 34.2314 55.9158 34.2838 53.8443 34.3849C55.9148 31.5301 58.036 28.8779 60.1687 26.4717ZM41.3023 45.5965C40.2489 47.5063 39.2454 49.4307 38.2939 51.3586C36.9682 48.071 35.834 44.8382 34.9075 41.7166C37.9481 41.0051 41.1906 40.4234 44.5692 39.9825C43.45 41.8078 42.3585 43.681 41.3023 45.5961V45.5965ZM44.6665 74.0428C41.1758 73.6356 37.8846 73.0838 34.8447 72.392C35.786 69.2147 36.9452 65.9128 38.2991 62.5544C39.253 64.481 40.2605 66.4061 41.3203 68.3202H41.3205C42.4001 70.2701 43.5185 72.1802 44.6665 74.0428ZM60.2947 87.5496C58.1369 85.1153 55.9846 82.4226 53.8826 79.5261C55.9232 79.6098 58.0036 79.6527 60.1179 79.6527C62.2901 79.6527 64.4374 79.6015 66.551 79.5031C64.4758 82.4517 62.3804 85.1486 60.2947 87.5496ZM82.0244 62.3833C83.4488 65.778 84.6496 69.0626 85.603 72.1857C82.513 72.9228 79.1769 73.5164 75.6618 73.9575C76.7682 72.1244 77.8602 70.233 78.9333 68.2874C80.019 66.319 81.0497 64.3477 82.0244 62.3833ZM74.9898 65.9093C73.3239 68.9295 71.6136 71.8126 69.8773 74.5341C66.7149 74.7706 63.4478 74.8923 60.1179 74.8923C56.8015 74.8923 53.5755 74.7846 50.4691 74.5738C48.6628 71.8166 46.9154 68.9249 45.2601 65.9352H45.2605C43.6096 62.9537 42.0901 59.947 40.7133 56.9571C42.0897 53.9603 43.6052 50.9502 45.2466 47.974L45.2462 47.9746C46.892 44.9905 48.6241 42.1129 50.4137 39.3729C53.5831 39.1224 56.8332 38.9917 60.1177 38.9917H60.1179C63.4173 38.9917 66.6715 39.1234 69.8399 39.3761C71.6022 42.096 73.3225 44.9643 74.9748 47.9488C76.6458 50.9669 78.1808 53.9569 79.569 56.8895C78.185 59.8724 76.6534 62.8926 74.9898 65.9093ZM84.3813 12.7513C87.9501 14.9032 89.3379 23.5816 87.0957 34.9617C86.9527 35.6879 86.7916 36.4275 86.6167 37.1771C82.1953 36.1104 77.3941 35.3166 72.3674 34.8235C69.4391 30.4632 66.4046 26.4993 63.3586 23.0675C64.1776 22.2438 64.9953 21.4583 65.8097 20.7171C73.6775 13.5578 81.031 10.7312 84.3813 12.7513Z" fill="white"/>
    <path d="M60.1182 46.8923C65.3739 46.8923 69.6346 51.3472 69.6346 56.8428C69.6346 62.3381 65.3739 66.7932 60.1182 66.7932C54.8625 66.7932 50.6018 62.3381 50.6018 56.8428C50.6018 51.3472 54.8625 46.8923 60.1182 46.8923Z" fill="#53C1DE"/>
  </g>
  <g id="reactnative">
    <path d="M59.9999 63.6073C65.9173 63.6073 70.7142 58.8103 70.7142 52.893C70.7142 46.9757 65.9173 42.1787 59.9999 42.1787C54.0826 42.1787 49.2856 46.9757 49.2856 52.893C49.2856 58.8103 54.0826 63.6073 59.9999 63.6073Z" fill="#F5DE19"/>
    <path d="M60 77.4583C47.122 77.7698 34.2763 76.0339 21.9429 72.3155C16.2455 70.5094 10.9317 67.6643 6.27 63.924C4.49113 62.6463 3.00974 60.9988 1.92747 59.0946C0.845197 57.1905 0.18767 55.0748 0 52.8926C0 45.8083 7.78286 38.8655 20.82 34.3226C33.4831 30.2972 46.714 28.3463 60 28.5455C73.1087 28.3623 86.1623 30.2779 98.6657 34.2197C104.153 35.969 109.286 38.6765 113.829 42.2169C115.577 43.4351 117.036 45.0228 118.103 46.8677C119.169 48.7126 119.817 50.7695 120 52.8926C120 60.2555 111.3 67.7169 97.2857 72.354C85.1911 75.9513 72.6164 77.6728 60 77.4583ZM60 33.6712C47.2891 33.5013 34.6321 35.3559 22.5043 39.1655C10.5043 43.3526 5.12571 49.0783 5.12571 52.8797C5.12571 56.8569 10.9071 63.1097 23.6014 67.4512C35.4003 70.9905 47.6855 72.6381 60 72.3326C72.0703 72.5484 84.1025 70.9152 95.6786 67.4897C108.857 63.1226 114.857 56.8612 114.857 52.8926C114.641 51.5307 114.145 50.2285 113.4 49.0681C112.655 47.9078 111.677 46.9145 110.529 46.1512C106.465 43.0104 101.879 40.6108 96.9814 39.0626C85.0201 35.3073 72.5356 33.4872 60 33.6712Z" fill="#F5DE19"/>
    <path d="M35.6555 106.331C33.6562 106.377 31.6805 105.892 29.9298 104.925C23.7927 101.385 21.6669 91.1767 24.2426 77.6124C27.0826 64.6313 32.0032 52.1951 38.8141 40.7852C45.2029 29.3385 53.382 18.9877 63.0412 10.1252C67.2976 6.24538 72.2078 3.1504 77.5441 0.983791C79.4742 0.0792446 81.5797 -0.389648 83.7112 -0.389648C85.8428 -0.389648 87.9482 0.0792446 89.8784 0.983791C96.2598 4.66093 98.3727 15.9238 95.3941 30.3795C92.4665 42.6562 87.6736 54.4114 81.1827 65.2352C75.0187 76.5468 67.0971 86.8074 57.7141 95.6338C53.3032 99.6657 48.1841 102.846 42.6155 105.015C40.3862 105.843 38.033 106.287 35.6555 106.331ZM43.2541 43.3309C36.7574 54.2566 32.0412 66.1468 29.2827 78.5552C26.9127 91.0481 29.1884 98.5609 32.4969 100.472C35.9255 102.457 44.2484 100.575 54.3541 91.7467C63.3113 83.2907 70.8722 73.4689 76.7555 62.6466C82.9738 52.2989 87.5713 41.0601 90.3884 29.3209C93.1912 15.7138 90.7698 7.38236 87.3326 5.40236C86.0444 4.90876 84.6678 4.6878 83.2898 4.75346C81.9118 4.81911 80.5624 5.16995 79.3269 5.78379C74.577 7.74385 70.2101 10.5265 66.4269 14.0038C57.1984 22.4929 49.3856 32.4021 43.2841 43.3566L43.2541 43.3309Z" fill="#F5DE19"/>
    <path d="M84.326 106.387C78.5188 106.387 71.1431 102.872 63.4631 96.2681C53.6347 87.325 45.3173 76.8512 38.8331 65.2524C32.1077 53.9996 27.226 41.7433 24.3731 28.9481C23.1359 23.3187 22.9066 17.5146 23.696 11.8052C23.8785 9.68726 24.5234 7.63511 25.5853 5.7935C26.6471 3.95188 28.1001 2.36565 29.8417 1.14666C36.2145 -2.54334 47.0274 1.24951 58.0631 11.0467C67.2371 19.7132 75.0276 29.7354 81.1631 40.7638C87.8844 51.7539 92.8173 63.7418 95.7774 76.2795C97.0679 82.1154 97.267 88.1397 96.3645 94.0481C96.1498 96.227 95.4665 98.3337 94.3613 100.224C93.2561 102.114 91.7553 103.742 89.9617 104.998C88.2395 105.953 86.2944 106.432 84.326 106.387ZM43.2688 62.6724C49.4892 73.7571 57.4343 83.7811 66.806 92.3681C76.4445 100.661 84.0903 102.444 87.3774 100.511C90.806 98.5181 93.3345 90.3838 90.7288 77.2224C87.874 65.2521 83.1426 53.8091 76.7103 43.3181C70.8552 32.7629 63.4191 23.1661 54.6603 14.8609C44.2717 5.63808 35.846 3.57666 32.4131 5.56523C31.3432 6.43472 30.4651 7.51661 29.8344 8.7426C29.2037 9.96858 28.8341 11.312 28.7488 12.6881C28.0674 17.7799 28.2894 22.952 29.4045 27.9667C32.1487 40.203 36.8306 51.9221 43.2731 62.6809L43.2688 62.6724Z" fill="#F5DE19"/>
  </g>
  <g id="styledcomponent">
    <path d="M68.7672 118.279C68.9472 117.872 69.4014 117.589 69.7314 117.246C74.7665 111.967 79.8444 106.735 84.811 101.391C86.3651 99.9558 87.5661 98.1804 88.3199 96.2036C89.0737 94.2269 89.36 92.1026 89.1562 89.9968C89.0003 89.0951 88.7957 88.2025 88.5434 87.3229C87.1893 88.6084 85.9294 89.7783 84.661 90.9567C82.6898 92.7908 80.7272 94.6334 78.7389 96.4461C77.5664 97.6415 76.0589 98.4531 74.4155 98.7737C72.772 99.0943 71.07 98.9087 69.5342 98.2416C67.9796 97.6705 66.6269 96.6553 65.6442 95.3221C64.6614 93.9889 64.0919 92.3965 64.0063 90.7425C63.9603 90.5297 63.8987 90.3206 63.8221 90.1168C62.3094 91.4024 60.861 92.5851 59.4254 93.8021L29.5875 119.085C29.3818 119.261 29.159 119.479 28.9662 119.65H68.7458L68.6858 119.612C68.4715 119.462 68.5829 118.673 68.7672 118.279Z" fill="#FFCEBF"/>
    <path d="M27.1436 118.279C27.4974 117.818 27.9245 117.418 28.4077 117.096L69.7 82.0642C72.5168 79.6731 75.3207 77.2691 78.1118 74.8522C78.4567 74.6118 78.727 74.2791 78.8918 73.8924C79.5594 70.9831 79.654 67.9717 79.1703 65.0263C78.7418 65.3262 78.5104 65.4548 78.3132 65.6648C74.9322 68.6901 71.5683 71.7412 68.1702 74.7494C67.0445 75.8824 65.5885 76.6292 64.0116 76.8825C62.4346 77.1359 60.818 76.8826 59.3941 76.1592C57.9414 75.4734 56.7256 74.3709 55.9014 72.992C55.0773 71.6131 54.682 70.0201 54.766 68.4159V67.0275C54.1447 67.4817 53.6905 67.7859 53.2662 68.1287C36.7396 81.3615 20.2159 94.5842 3.69496 107.797C2.94933 108.393 2.05801 109.721 1.08098 108.431C0.103957 107.141 1.59092 106.61 2.34083 106.01C19.953 91.8774 37.5738 77.7576 55.2031 63.6507C58.0742 61.3496 58.2628 60.3854 56.3944 56.7301L55.2803 57.7757C52.2249 60.6168 49.1353 63.4193 46.1271 66.3075C44.8931 67.4978 43.3476 68.3148 41.6691 68.6641C39.9906 69.0135 38.2476 68.8809 36.6412 68.2818C35.0348 67.6827 33.6306 66.6415 32.5908 65.2784C31.5509 63.9153 30.9178 62.2858 30.7646 60.5782C30.1947 61.0067 29.7019 61.3196 29.2348 61.6838L3.09503 81.9443C2.64419 82.3864 2.13005 82.7591 1.5695 83.0498C1.14643 83.1777 0.692134 83.155 0.283936 82.9856V119.671H27.0922C26.9925 119.451 26.9453 119.21 26.9542 118.969C26.9631 118.727 27.028 118.491 27.1436 118.279Z" fill="#FFCEBF"/>
    <path d="M99.5654 1.82096C98.8369 4.20782 98.1298 6.59897 97.4913 9.01154C96.9016 10.7164 96.9702 12.5802 97.6837 14.2371C98.3972 15.8941 99.7041 17.2246 101.348 17.9676C106.376 20.6107 112.043 21.798 117.709 21.3958V2.22806C117.646 1.80781 117.669 1.37914 117.777 0.968207C117.897 0.73576 118.049 0.520916 118.227 0.329712H99.5482C99.8353 0.663958 99.7368 1.25103 99.5654 1.82096Z" fill="#FF6196"/>
    <path d="M62.0511 42.9976C61.9623 45.137 61.2139 47.1966 59.9085 48.894C55.242 54.9179 49.8829 60.3719 43.9418 65.1435C42.9837 66.0304 41.7694 66.591 40.473 66.745C39.1766 66.8989 37.8647 66.6383 36.7255 66.0005C35.5917 65.5161 34.6357 64.6925 33.9889 63.6428C33.342 62.5932 33.0361 61.369 33.1131 60.1384C33.2503 58.627 33.8779 57.202 34.9 56.0803C41.5435 49.7455 48.7415 44.019 56.4075 38.9695C56.9096 38.5758 57.5227 38.3499 58.1602 38.3237C58.7977 38.2976 59.4273 38.4725 59.9599 38.8238C60.66 39.2585 61.2259 39.8786 61.5951 40.6153C61.9642 41.352 62.122 42.1766 62.0511 42.9976Z" fill="#FF87AF"/>
    <path d="M56.9127 68.97C56.8132 68.0228 56.9348 67.0654 57.2679 66.1731C57.6011 65.2809 58.1366 64.478 58.8325 63.8277C65.3374 57.8281 72.3164 52.3638 79.7014 47.4883C79.9243 47.3468 80.13 47.2054 80.3742 47.0597C81.0193 46.594 81.8009 46.356 82.596 46.3832C83.3912 46.4103 84.1547 46.7011 84.7665 47.2097C85.3585 47.7112 85.7774 48.3865 85.9635 49.1396C86.1497 49.8928 86.0937 50.6854 85.8036 51.4049C84.8693 54.5168 83.1449 57.3337 80.7984 59.5811C76.033 64.2758 71.1755 68.8762 66.2287 73.3795C65.4838 74.1456 64.5052 74.6422 63.447 74.7911C62.3889 74.9401 61.3112 74.7329 60.3837 74.2022C59.4091 73.6958 58.5792 72.9499 57.9721 72.0347C57.3649 71.1194 57.0004 70.0648 56.9127 68.97Z" fill="#FF87AF"/>
    <path d="M87.8344 71.8015C86.6346 73.0871 85.4004 74.3126 84.2477 75.6282C83.9011 76.1367 83.6136 76.683 83.3907 77.2566C84.0249 77.4451 84.7662 77.9422 85.2804 77.7665C87.8987 76.888 90.4527 75.8339 93.3281 74.724C92.7024 76.1638 92.231 77.4922 91.5668 78.7092C88.8305 83.3078 85.4038 87.4587 81.4066 91.0164C79.8868 92.4819 78.3084 93.8832 76.6715 95.2201C75.8046 95.9395 74.7622 96.4157 73.6509 96.6001C72.5396 96.7844 71.3992 96.6702 70.3465 96.2692C69.2938 95.8681 68.3665 95.1947 67.6595 94.3176C66.9525 93.4406 66.4912 92.3916 66.3227 91.2778C66.254 90.6585 66.3087 90.0317 66.4838 89.4337C66.6589 88.8357 66.9507 88.2784 67.3426 87.7939C73.174 81.4614 79.8384 75.9503 87.1531 71.4115C87.242 71.3771 87.3363 71.3582 87.4316 71.3558L87.8344 71.8015Z" fill="#FF87AF"/>
    <path d="M97.6724 54.7335L105.004 22.1659L110.147 23.37L107.494 31.4305C105.017 38.9296 102.51 46.4287 100.093 53.9364C99.6221 55.3248 99.0051 55.5819 97.6724 54.7335Z" fill="#FF6196"/>
    <path d="M89.3859 73.8885C90.1615 70.9274 90.9328 68.1892 91.5842 65.421C92.219 62.7364 93.4264 60.2207 95.1238 58.0461C96.1651 56.6791 97.3349 57.2234 98.5305 57.519C99.6361 57.789 99.9146 58.5989 99.9618 59.6616C100.136 62.6005 99.2411 65.5031 97.4421 67.8335C95.3003 70.4887 92.5318 72.5695 89.3859 73.8885Z" fill="#FF6196"/>
    <path d="M119.944 3.83936C120.008 2.88498 119.983 1.92674 119.871 0.976845C119.783 0.711516 119.607 0.483621 119.374 0.329779C119.184 0.175101 118.961 0.0652523 118.723 0.00838844C118.585 -0.0173228 118.393 0.124089 118.208 0.325493C118.03 0.516698 117.878 0.731542 117.758 0.96399C117.65 1.37492 117.627 1.80359 117.69 2.22384V21.3873C112.023 21.7895 106.357 20.6022 101.329 17.9591C99.685 17.2161 98.3781 15.8856 97.6646 14.2286C96.951 12.5717 96.8824 10.7079 97.4722 9.00304C98.1107 6.59046 98.8178 4.19932 99.5462 1.81246C99.7177 1.24253 99.8162 0.655454 99.5462 0.321208C99.3961 0.158494 99.1888 0.0602123 98.9677 0.0469556C98.6847 0.0500088 98.4105 0.146413 98.1878 0.321208C97.8674 0.512888 97.6121 0.796593 97.4551 1.1354C96.598 3.70652 95.8438 6.30336 95.1882 8.9259C94.9407 9.95936 94.874 11.0279 94.9911 12.0841C95.1569 13.9952 95.8676 15.8186 97.0389 17.3377C98.2102 18.8569 99.7928 20.0081 101.599 20.6545C102.409 20.993 102.884 21.3273 102.657 22.3943C102.344 23.7484 102.04 25.1026 101.732 26.461C99.632 35.6656 97.5436 44.8745 95.4667 54.0877C95.4082 54.4985 95.2275 54.8822 94.9482 55.189C93.5793 56.2771 92.4291 57.6148 91.5586 59.1314C90.4493 61.1327 89.6817 63.3052 89.2875 65.5592C89.2118 66.2782 88.952 66.9655 88.5331 67.5548C88.1143 68.144 87.5505 68.6153 86.8963 68.9231C85.1094 69.8273 83.4682 70.9971 81.4841 72.2141C81.6164 69.8282 81.5906 67.4361 81.407 65.0535C81.256 64.3206 81.288 63.5618 81.5003 62.8442C81.7126 62.1267 82.0985 61.4725 82.624 60.9397C85.2375 58.3506 87.1005 55.1015 88.0148 51.538C88.2878 50.712 88.3627 49.8333 88.2333 48.9729C88.104 48.1126 87.774 47.2948 87.27 46.5856C86.7661 45.8764 86.1023 45.2957 85.3325 44.8905C84.5626 44.4853 83.7081 44.267 82.8382 44.2531C81.4298 44.2374 80.047 44.6304 78.8573 45.3844C74.7683 48.1767 70.7504 51.0715 66.8073 54.0663C64.4633 55.8318 62.2564 57.7858 59.9852 59.637C59.8873 59.5319 59.8025 59.4154 59.7324 59.2899C59.689 58.9744 59.604 58.6661 59.4796 58.3729C57.5812 55.4418 58.8968 53.3121 60.958 51.1223C63.1053 48.8714 64.2919 45.8727 64.2661 42.7619C64.3327 41.1769 63.8363 39.6194 62.8649 38.3653C62.3474 37.7286 61.7096 37.2001 60.988 36.8097C59.9629 36.2487 58.7908 36.0145 57.6289 36.1386C56.467 36.2627 55.3708 36.7391 54.4873 37.5039L53.2917 38.361C50.5621 40.315 47.7981 42.2177 45.1713 44.3089C41.3364 47.3705 37.5841 50.5341 33.9183 53.7963C32.2042 55.309 30.953 57.3744 29.1746 58.78C19.9014 66.1034 10.5297 73.294 1.1922 80.5317C0.871132 80.7232 0.575909 80.9551 0.313735 81.2216C0.286745 81.2606 0.263774 81.3023 0.245172 81.3459C0.0480521 81.8044 -0.119071 82.5629 0.112331 82.8414C0.169054 82.9019 0.23761 82.95 0.313735 82.9828C0.721934 83.1523 1.17623 83.175 1.5993 83.0471C2.15985 82.7563 2.67399 82.3837 3.12483 81.9415L29.2646 61.6811C29.7317 61.3168 30.2245 60.9869 30.7944 60.5755C30.9476 62.2831 31.5807 63.9125 32.6206 65.2757C33.6604 66.6388 35.0646 67.68 36.671 68.2791C38.2774 68.8782 40.0204 69.0107 41.6989 68.6614C43.3774 68.312 44.9229 67.4951 46.1569 66.3048C49.1565 63.4166 52.2547 60.6141 55.3101 57.773L56.4242 56.7274C58.2926 60.3827 58.104 61.3468 55.2329 63.648C37.5893 77.7663 19.9585 91.8875 2.34064 106.012C1.59073 106.611 0.108046 107.156 1.08079 108.433C2.05353 109.71 2.94914 108.394 3.69476 107.798C20.2242 94.5972 36.7423 81.3787 53.2489 68.1432C53.6774 67.8003 54.1273 67.4961 54.7487 67.0419V68.4303C54.6647 70.0345 55.0599 71.6275 55.8841 73.0064C56.7082 74.3853 57.924 75.4879 59.3767 76.1736C60.8007 76.897 62.4173 77.1503 63.9942 76.897C65.5711 76.6436 67.0271 75.8968 68.1528 74.7638C71.551 71.7642 74.9149 68.7045 78.2959 65.6792C78.5102 65.4863 78.7587 65.3406 79.153 65.0407C79.6367 67.9861 79.542 70.9975 78.8744 73.9068C78.7096 74.2936 78.4394 74.6262 78.0945 74.8667C75.3005 77.2807 72.4966 79.6847 69.6826 82.0787L28.4075 117.115C27.9243 117.437 27.4972 117.836 27.1434 118.297C27.0305 118.507 26.9672 118.741 26.9582 118.979C26.9493 119.217 26.9951 119.455 27.092 119.673C27.2856 119.818 27.5094 119.917 27.7468 119.964C27.9842 120.011 28.2291 120.004 28.4633 119.943C28.648 119.889 28.8181 119.794 28.9603 119.664C29.1746 119.493 29.3889 119.274 29.5817 119.099L59.4196 93.8158C60.8551 92.5988 62.3035 91.399 63.8162 90.1306C63.8928 90.3343 63.9544 90.5434 64.0005 90.7562C64.0861 92.4102 64.6556 94.0027 65.6383 95.3358C66.6211 96.669 67.9737 97.6842 69.5284 98.2553C71.0641 98.9225 72.7662 99.108 74.4096 98.7874C76.053 98.4669 77.5606 97.6552 78.733 96.4598C80.7213 94.6472 82.684 92.8045 84.6552 90.9705C85.9407 89.792 87.1834 88.6093 88.5376 87.3366C88.7898 88.2162 88.9944 89.1089 89.1503 90.0106C89.3473 92.1094 89.0578 94.2253 88.3042 96.1941C87.5506 98.1628 86.3532 99.9313 84.8051 101.362C79.8386 106.71 74.7606 111.942 69.7255 117.217C69.3955 117.56 68.9413 117.843 68.7613 118.25C68.5813 118.657 68.4657 119.454 68.6799 119.626L68.7399 119.664C69.1892 119.883 69.6945 119.959 70.1883 119.883C70.3267 119.854 70.45 119.777 70.5354 119.664C70.6554 119.54 70.7711 119.386 70.8868 119.27C74.9663 115.053 79.0672 110.858 83.1168 106.611C84.7513 104.955 86.288 103.205 87.7191 101.371C89.5851 99.3049 90.8224 96.7492 91.2855 94.0042C91.7486 91.2591 91.4181 88.439 90.3331 85.8754C90.2164 85.3037 90.3304 84.7092 90.6502 84.2213C90.9287 83.7413 91.2372 83.2742 91.5543 82.8114C92.569 81.494 93.4141 80.0544 94.0698 78.5262C95.3368 74.7758 97.2817 71.2898 99.8076 68.2417C100.969 66.7695 101.768 65.0448 102.14 63.207C102.512 61.3692 102.447 59.4696 101.95 57.6616C101.775 56.9741 101.775 56.2535 101.95 55.5661C104.119 48.8512 106.351 42.1577 108.562 35.4599L111.519 26.4867L112.432 23.7142C114.377 23.7142 116.211 23.6756 118.037 23.7142C119.554 23.757 120.017 23.0457 120 21.5715C119.91 15.658 119.944 9.74866 119.944 3.83936ZM43.9371 65.1435C42.9791 66.0304 41.7647 66.591 40.4683 66.745C39.1719 66.8989 37.86 66.6383 36.7208 66.0006C35.587 65.5162 34.631 64.6925 33.9842 63.6429C33.3373 62.5932 33.0314 61.369 33.1084 60.1384C33.2457 58.6271 33.8732 57.202 34.8953 56.0803C41.5388 49.7455 48.7368 44.019 56.4028 38.9695C56.8212 38.6737 57.2972 38.4693 57.7998 38.3696C58.1369 38.3074 58.4825 38.3074 58.8196 38.3696C59.2234 38.4482 59.6086 38.6023 59.9552 38.8238C60.656 39.2588 61.2224 39.8796 61.5916 40.6171C61.9607 41.3547 62.1182 42.1802 62.0464 43.0019C61.9576 45.1413 61.2092 47.2009 59.9038 48.8983C55.237 54.9207 49.878 60.3733 43.9371 65.1435ZM66.2202 73.4097C65.4752 74.1758 64.4966 74.6724 63.4385 74.8213C62.3803 74.9703 61.3027 74.7631 60.3752 74.2324C59.3988 73.7249 58.5678 72.977 57.9605 72.0593C57.3533 71.1416 56.9897 70.0844 56.9042 68.9874C56.8047 68.0401 56.9263 67.0828 57.2594 66.1905C57.5925 65.2982 58.1281 64.4954 58.8239 63.8451C65.3288 57.8454 72.3078 52.3811 79.6929 47.5056C79.9157 47.3642 80.1214 47.2228 80.3657 47.0771C81.0107 46.6114 81.7923 46.3734 82.5875 46.4005C83.3826 46.4277 84.1462 46.7185 84.758 47.2271C85.35 47.7285 85.7688 48.4038 85.955 49.157C86.1412 49.9101 86.0852 50.7028 85.795 51.4223C84.8607 54.5342 83.1364 57.351 80.7899 59.5985C76.0633 64.3208 71.1482 68.8674 66.2288 73.3925L66.2202 73.4097ZM91.5501 78.7276C88.8175 83.319 85.3967 87.4638 81.407 91.0176C79.8872 92.4831 78.3088 93.8844 76.6718 95.2214C75.8049 95.9408 74.7625 96.417 73.6512 96.6013C72.5399 96.7856 71.3996 96.6714 70.3469 96.2704C69.2942 95.8694 68.3669 95.1959 67.6599 94.3189C66.9529 93.4419 66.4915 92.3928 66.323 91.279C66.2543 90.6597 66.3091 90.0329 66.4842 89.435C66.6592 88.837 66.9511 88.2796 67.3429 87.7951C73.1743 81.4627 79.8387 75.9515 87.1534 71.4128C87.2424 71.3783 87.3366 71.3594 87.432 71.3571L87.8605 71.7856C86.6606 73.0712 85.4265 74.2967 84.2738 75.6123C83.9272 76.1208 83.6396 76.6671 83.4167 77.2407C84.0509 77.4292 84.7923 77.9263 85.3065 77.7506C87.3763 77.0564 89.4117 76.2508 91.5929 75.3937L93.3541 74.7081C92.6942 76.1651 92.2228 77.4935 91.5586 78.7105L91.5501 78.7276ZM97.4336 67.8646C95.8352 69.8996 93.8317 71.5806 91.5501 72.8012C90.8444 73.1954 90.1202 73.564 89.3775 73.9068C90.1402 70.9885 90.903 68.2846 91.5501 65.5506L91.5758 65.4392C92.2106 62.7546 93.418 60.2389 95.1153 58.0644C96.1566 56.6974 97.3265 57.2416 98.5221 57.5373C99.6277 57.8073 99.9062 58.6172 99.9533 59.6799C100.129 62.6162 99.2372 65.5171 97.4422 67.8475L97.4336 67.8646ZM107.461 31.4404C104.984 38.9395 102.477 46.4386 100.06 53.9463C99.6062 55.3561 98.9892 55.6132 97.6565 54.7648L104.011 26.5124L104.988 22.1758L110.131 23.3799L109.098 26.5124L107.461 31.4404Z" fill="black"/>

  </g>
  <g id="redux">
    <path d="M83.1473 79.6013C87.5756 79.1428 90.9352 75.3253 90.7823 70.7438C90.63 66.1627 86.812 62.4975 82.2309 62.4975H81.9258C77.1914 62.6503 73.5267 66.6207 73.6795 71.3546C73.8323 73.6453 74.7483 75.6305 76.1227 77.0049C70.9308 87.2368 62.9902 94.7194 51.0792 100.98C42.9858 105.256 34.5872 106.784 26.1886 105.715C19.3167 104.798 13.972 101.745 10.612 96.7046C5.72578 89.2219 5.26781 81.128 9.39093 73.0346C12.2925 67.2314 16.8731 62.9555 19.7747 60.8175C19.1639 58.8324 18.2475 55.4728 17.7895 53.0297C-4.35282 69.0643 -2.06204 90.7491 4.65703 100.98C9.69609 108.616 19.9275 113.35 31.2276 113.35C34.2816 113.35 37.3355 113.045 40.3898 112.282C59.9362 108.464 74.7487 96.8574 83.1473 79.6013ZM110.024 60.6652C98.4178 47.0738 81.315 39.5911 61.7686 39.5911H59.3255C57.9511 36.8424 55.0495 35.0096 51.8428 35.0096H51.5372C46.8037 35.1624 43.1391 39.1327 43.2914 43.8671C43.4442 48.4482 47.2617 52.1133 51.8428 52.1133H52.148C55.5075 51.9605 58.4091 49.8225 59.6306 46.921H62.3794C73.9852 46.921 84.9797 50.2805 94.9059 56.8472C102.541 61.8868 108.038 68.4535 111.092 76.3941C113.688 82.808 113.535 89.0691 110.787 94.4143C106.511 102.508 99.3342 106.936 89.8664 106.936C83.7581 106.936 77.9555 105.104 74.9011 103.729C73.2216 105.256 70.1672 107.7 68.0292 109.227C74.5959 112.281 81.315 113.961 87.7284 113.961C102.388 113.961 113.23 105.867 117.353 97.7738C121.782 88.9163 121.476 73.6453 110.024 60.6652ZM32.4492 82.1968C32.602 86.7783 36.4195 90.443 41.0006 90.443H41.3062C46.0401 90.2907 49.7048 86.3199 49.552 81.586C49.3997 77.0044 45.5817 73.3397 41.0006 73.3397H40.6955C40.3898 73.3397 39.9314 73.3397 39.6267 73.4921C33.3656 63.1078 30.7697 51.8077 31.6861 39.5907C32.2964 30.428 35.3508 22.4869 40.6955 15.9202C45.1237 10.2699 53.6751 7.52113 59.4783 7.36878C75.6647 7.06316 82.5361 27.2208 82.9945 35.3147C84.9797 35.7727 88.3392 36.8419 90.63 37.6055C88.7972 12.8668 73.5267 0.0389404 58.8675 0.0389404C45.1237 0.0389404 32.4492 9.96519 27.4097 24.6253C20.3855 44.1722 24.9666 62.9555 33.518 77.7685C32.7548 78.8372 32.2964 80.5172 32.4492 82.1972V82.1968Z" fill="#764ABC"/>
  </g>
  <g id="git">
    <defs><clipPath id="a"><path d="M0 .113h91.887V92H0Zm0 0"/></clipPath></defs><g clip-path="url(#a)"><path style="stroke:none;fill-rule:nonzero;fill:#f03c2e;fill-opacity:1" d="M90.156 41.965 50.036 1.848a5.918 5.918 0 0 0-8.372 0l-8.328 8.332 10.566 10.566a7.03 7.03 0 0 1 7.23 1.684 7.034 7.034 0 0 1 1.669 7.277l10.187 10.184a7.028 7.028 0 0 1 7.278 1.672 7.04 7.04 0 0 1 0 9.957 7.05 7.05 0 0 1-9.965 0 7.044 7.044 0 0 1-1.528-7.66l-9.5-9.497V59.36a7.04 7.04 0 0 1 1.86 11.29 7.04 7.04 0 0 1-9.957 0 7.04 7.04 0 0 1 0-9.958 7.06 7.06 0 0 1 2.304-1.539V33.926a7.049 7.049 0 0 1-3.82-9.234L29.242 14.272 1.73 41.777a5.925 5.925 0 0 0 0 8.371L41.852 90.27a5.925 5.925 0 0 0 8.37 0l39.934-39.934a5.925 5.925 0 0 0 0-8.371"/></g>
  </g>
</svg>