<svg width="22" height="22" viewBox="0 0 22 22" fill="none" xmlns="http://www.w3.org/2000/svg">
  <g id="email">
    <path d="M24.0406 1.49743V16.2383C24.0406 17.0748 23.4031 17.7123 22.5666 17.7123H21.0925V4.3343L12.248 10.6876L3.40349 4.3343V17.7123H1.9294C1.09286 17.7123 0.455322 17.0748 0.455322 16.2383V1.49743C0.455322 1.07879 0.613049 0.710271 0.877647 0.449358C1.01545 0.311478 1.17958 0.202713 1.36026 0.129529C1.54094 0.0563445 1.73449 0.0202354 1.9294 0.0233483H2.42101L12.248 7.14832L22.0749 0.0233483H22.5666C22.9852 0.0233483 23.3537 0.181075 23.6183 0.449358C23.8829 0.710271 24.0406 1.07879 24.0406 1.49743Z"/>
  </g>
  <g id="linkedin">
    <path d="M1.06338 21.7051H5.0114V7.09742H1.06338V21.7051ZM3.03739 0.648987C1.72138 0.648987 0.668579 1.70179 0.668579 3.0178C0.668579 4.33381 1.72138 5.38661 3.03739 5.38661C4.3534 5.38661 5.40621 4.33381 5.40621 3.0178C5.40621 1.70179 4.3534 0.648987 3.03739 0.648987ZM11.723 9.33463V7.09742H7.77502V21.7051H11.723V14.2039C11.723 9.99264 17.1187 9.72944 17.1187 14.2039V21.7051H21.0667V12.7563C21.0667 5.64981 13.5655 5.91302 11.723 9.33463Z"/>
  </g>
  <g id="git">
    <path fill-rule="evenodd" clip-rule="evenodd" d="M48.854 0C21.839 0 0 22 0 49.217c0 21.756 13.993 40.172 33.405 46.69 2.427.49 3.316-1.059 3.316-2.362 0-1.141-.08-5.052-.08-9.127-13.59 2.934-16.42-5.867-16.42-5.867-2.184-5.704-5.42-7.17-5.42-7.17-4.448-3.015.324-3.015.324-3.015 4.934.326 7.523 5.052 7.523 5.052 4.367 7.496 11.404 5.378 14.235 4.074.404-3.178 1.699-5.378 3.074-6.6-10.839-1.141-22.243-5.378-22.243-24.283 0-5.378 1.94-9.778 5.014-13.2-.485-1.222-2.184-6.275.486-13.038 0 0 4.125-1.304 13.426 5.052a46.97 46.97 0 0 1 12.214-1.63c4.125 0 8.33.571 12.213 1.63 9.302-6.356 13.427-5.052 13.427-5.052 2.67 6.763.97 11.816.485 13.038 3.155 3.422 5.015 7.822 5.015 13.2 0 18.905-11.404 23.06-22.324 24.283 1.78 1.548 3.316 4.481 3.316 9.126 0 6.6-.08 11.897-.08 13.526 0 1.304.89 2.853 3.316 2.364 19.412-6.52 33.405-24.935 33.405-46.691C97.707 22 75.788 0 48.854 0z"/>
  </g>

</svg>

